<?xml version="1.0" encoding="UTF-8"?>
<svg id="Layer_1" xmlns="http://www.w3.org/2000/svg" version="1.1" viewBox="0 0 244.8 244.8">
  <!-- Generator: Adobe Illustrator 29.1.0, SVG Export Plug-In . SVG Version: 2.1.0 Build 142)  -->
  <circle cx="119.9" cy="123.7" r="20"/>
  <path d="M61.9,108c8.8,0,16,7.2,16,16s-7.2,16-16,16-16-7.2-16-16,7.2-16,16-16M61.9,104c-11,0-20,9-20,20s9,20,20,20,20-9,20-20-9-20-20-20Z"/>
  <path d="M166,77.3V17.3l-60,60h-49.9L16.1,37.3v130c0,33.1,26.9,60,60,60h90V77.3h-.1ZM100.3,167.6l-7,7v13.6c0,1.1-.9,2-2,2s-2-.9-2-2v-13.6l-7-7c-.8-.8-.8-2,0-2.8.8-.8,2-.8,2.8,0l6.1,6.1,6.1-6.1c.8-.8,2-.8,2.8,0,.8.8.8,2,.2,2.8ZM122.2,149.5h-62.1c-14.3,0-25.8-11.6-25.8-25.8,0-14.2,11.5-25.8,25.8-25.8h62.1c14.3,0,25.8,11.6,25.8,25.8s-11.6,25.8-25.8,25.8Z"/>
  <path d="M239.7,117h0c-3.8-10.5-15.4-15.8-25.9-12s-15.8,15.4-12,25.9c.1.3.3.7.4,1,12.2,34.2-5.7,71.7-39.9,83.9-12.6,4.5-26.4,5-39.3,1.5,39.7,21.9,89.6,7.4,111.5-32.3,11.5-20.9,13.4-45.7,5.2-68Z"/>
</svg>